<svg xmlns="http://www.w3.org/2000/svg"  viewBox="0 0 520 520" width="128px" height="128px"><path d="M 402.5 42.5 A 7.5 7.5 0 0 0 402.5 57.5 A 7.5 7.5 0 0 0 402.5 42.5 z M 172.5 45 A 7.5 7.5 0 0 0 172.5 60 A 7.5 7.5 0 0 0 172.5 45 z M 260 55.458984 L 72.910156 185 L 112.21875 185 L 252.10938 85.919922 C 254.36237 84.322922 257.48408 84.856375 259.08008 87.109375 C 260.67708 89.363375 260.14362 92.485078 257.89062 94.080078 L 129.52148 185 L 447.08984 185 L 385 142.00977 L 385 155 C 385 157.761 382.762 160 380 160 L 345 160 C 342.238 160 340 157.761 340 155 L 340 110.85156 L 260 55.458984 z M 362.5 85 C 355.607 85 350 90.607 350 97.5 L 350 150 L 375 150 L 375 97.5 C 375 90.607 369.393 85 362.5 85 z M 72.5 115 A 7.5 7.5 0 0 0 72.5 130 A 7.5 7.5 0 0 0 72.5 115 z M 462.5 125 A 7.5 7.5 0 0 0 462.5 140 A 7.5 7.5 0 0 0 462.5 125 z M 120 195 L 120 220 L 230 220 C 232.761 220 235 222.239 235 225 C 235 227.761 232.761 230 230 230 L 120 230 L 120 405 L 140 405 L 140 398.66797 C 140 388.37497 148.37497 380 158.66797 380 L 211.33398 380 C 221.62698 380 230.00195 388.37497 230.00195 398.66797 L 230.00195 405 L 345.4375 405 L 285.80469 345.36523 L 274.74805 356.42188 C 281.17105 363.37887 281.07581 374.23283 274.25781 381.04883 C 267.30081 388.00383 256.04389 388.00583 249.08789 381.04883 L 200.82227 332.7832 C 193.86627 325.8262 193.86427 314.56933 200.82227 307.61133 C 207.47527 300.95933 218.31131 300.54019 225.44531 307.11719 L 272.72461 259.83984 C 269.68661 256.54684 268.00586 252.30683 268.00586 247.79883 C 268.00586 237.96183 275.96769 230 285.80469 230 C 290.55869 230 295.02767 231.85189 298.38867 235.21289 L 346.6543 283.47852 C 353.6083 290.43052 353.6123 301.69244 346.6543 308.64844 C 343.2933 312.01044 338.82431 313.86328 334.07031 313.86328 C 329.56231 313.86328 325.32134 312.18158 322.02734 309.14258 L 310.97266 320.19727 L 374.78711 384.01172 C 380.46111 389.68472 381.48972 398.265 377.88672 405 L 400 405 L 400 195 L 120 195 z M 455 230 C 443.972 230 435 238.972 435 250 C 435 261.028 443.972 270 455 270 C 466.028 270 475 261.028 475 250 C 475 238.972 466.028 230 455 230 z M 285.80469 240.00195 C 281.50169 240.00195 278.00586 243.47983 278.00586 247.79883 C 278.00586 249.88183 278.81706 251.8405 280.28906 253.3125 C 280.39006 253.4125 283.40664 256.42812 283.30664 256.32812 C 283.75664 256.77913 283.81697 256.83941 325.54297 298.56641 L 328.55664 301.58008 C 330.02964 303.05308 331.98731 303.86328 334.07031 303.86328 C 336.15331 303.86328 338.11098 303.05112 339.58398 301.57812 C 342.62998 298.53213 342.63494 293.60078 339.58594 290.55078 L 291.31836 242.28516 C 289.84436 240.81216 287.88769 240.00195 285.80469 240.00195 z M 72.5 260 A 7.5 7.5 0 0 0 72.5 275 A 7.5 7.5 0 0 0 72.5 260 z M 279.76562 266.93359 L 232.53906 314.16016 L 267.70117 349.32227 L 314.92773 302.09375 L 279.76562 266.93359 z M 213.40625 312.40039 C 209.08725 312.40039 205.60742 315.89722 205.60742 320.19922 C 205.60742 322.28122 206.41958 324.24084 207.89258 325.71484 L 256.15625 373.97852 C 257.62925 375.45152 259.58787 376.26367 261.67188 376.26367 C 265.98287 376.26367 269.4707 372.77584 269.4707 368.46484 C 269.4707 366.38184 268.6595 364.42317 267.1875 362.95117 L 218.91992 314.68359 C 217.44692 313.21059 215.48925 312.40039 213.40625 312.40039 z M 303.9043 327.26758 L 292.87695 338.29688 L 356.68945 402.10938 C 359.72445 405.14537 364.6568 405.16738 367.7168 402.10938 C 370.7568 399.06838 370.7568 394.12108 367.7168 391.08008 L 303.9043 327.26758 z M 65 350 C 56.729 350 50 356.729 50 365 C 50 373.271 56.729 380 65 380 C 73.271 380 80 373.271 80 365 C 80 356.729 73.271 350 65 350 z M 442.5 350 A 7.5 7.5 0 0 0 442.5 365 A 7.5 7.5 0 0 0 442.5 350 z M 158.66797 390 C 153.88897 390 150 393.88897 150 398.66797 L 150 405 L 220 405 L 220 398.66797 C 220 393.88897 216.11103 390 211.33203 390 L 158.66797 390 z M 105 415 L 105 430 L 415 430 L 415 415 L 105 415 z M 80 440 L 80 455 L 55 455 C 52.239 455 50 457.238 50 460 C 50 462.762 52.239 465 55 465 L 465 465 C 467.762 465 470 462.762 470 460 C 470 457.238 467.762 455 465 455 L 440 455 L 440 440 L 80 440 z"/></svg>